# xmcd CD database file
#
# Track frame offsets:
#	150
#	27023
#	58216
#	84969
#	100922
#	127267
#	147036
#	178997
#	216046
#	240951
#
# Disc length: 3379 seconds
#
# Revision: 0
# Processed by: cddbd v1.5.2PL0 Copyright (c) Steve Scherf et al.
# Submitted via: CDex 1.70beta2
#
DISCID=860d310a
DTITLE=Gebr￼der Leontschik Micha und Alexander - Manuel Dakol - M-Side
DYEAR=2008
DGENRE=Jazz
TTITLE0=Leon-Brothers - Quasi Jazz
TTITLE1=Leon-Brothers - Kupa Linka
TTITLE2=Leon-Brothers - Steppe ￼berall
TTITLE3=Leon-Brothers - Sedlidonka
TTITLE4=Leon-Brothers - die Wachtel
TTITLE5=Leon-Brothers - Gallizian Dance
TTITLE6=Leon-Brothers - Nostalgia
TTITLE7=Leon-Brothers - gr￼nes Ahornblatt
TTITLE8=Leon-Brothers - Oriental Bus
TTITLE9=Leon-Brothers - BonusTrack Kuckuck
EXTD=YEAR: 2008
EXTT0=
EXTT1=
EXTT2=
EXTT3=
EXTT4=
EXTT5=
EXTT6=
EXTT7=
EXTT8=
EXTT9=
PLAYORDER=
